<svg width="34" height="18" viewBox="0 0 34 18" fill="none" xmlns="http://www.w3.org/2000/svg">
<path fill-rule="evenodd" clip-rule="evenodd" d="M8.23268 1.31819L1.31905 8.23182C0.894794 8.65607 0.894794 9.34393 1.31905 9.76818L8.23268 16.6818C8.65693 17.1061 9.34479 17.1061 9.76904 16.6818C10.1933 16.2576 10.1933 15.5697 9.76904 15.1454L4.70996 10.0864L27.0738 10.0864C27.6738 10.0864 28.1602 9.59999 28.1602 9C28.1602 8.40001 27.6738 7.91363 27.0738 7.91363L4.70996 7.91363L9.76904 2.85455C10.1933 2.4303 10.1933 1.74245 9.76904 1.31819C9.34479 0.893936 8.65693 0.893936 8.23268 1.31819Z" fill="#2F8FFF"/>
<path fill-rule="evenodd" clip-rule="evenodd" d="M9.97805 1.10625C9.43664 0.564842 8.55883 0.564843 8.01742 1.10625L1.10379 8.01988C0.562382 8.56129 0.562382 9.4391 1.10379 9.98051L8.01742 16.8941C8.55883 17.4355 9.43664 17.4355 9.97805 16.8941C10.5195 16.3527 10.5195 15.4749 9.97805 14.9335L5.4311 10.3866L27.0707 10.3866C27.8363 10.3866 28.457 9.76587 28.457 9.00019C28.457 8.23452 27.8363 7.61382 27.0707 7.61382L5.4311 7.61382L9.97805 3.06688C10.5195 2.52547 10.5195 1.64767 9.97805 1.10625ZM8.44168 1.53052C8.74878 1.22342 9.24669 1.22342 9.55378 1.53052C9.86088 1.83762 9.86088 2.33552 9.55378 2.64262L4.49471 7.70169C4.40891 7.78749 4.38324 7.91653 4.42968 8.02863C4.47611 8.14073 4.5855 8.21382 4.70684 8.21382L27.0707 8.21382C27.505 8.21382 27.857 8.56589 27.857 9.00019C27.857 9.4345 27.505 9.78657 27.0707 9.78657L4.70684 9.78657C4.5855 9.78657 4.47611 9.85966 4.42968 9.97176C4.38324 10.0839 4.40891 10.2129 4.49471 10.2987L9.55378 15.3578C9.86088 15.6649 9.86088 16.1628 9.55378 16.4699C9.24669 16.777 8.74878 16.777 8.44168 16.4699L1.52806 9.55624C1.22096 9.24915 1.22096 8.75124 1.52806 8.44415L8.44168 1.53052Z" fill="#2F8FFF"/>
<path d="M31.4171 9.00043C31.4171 9.60042 31.9035 10.0868 32.5035 10.0868C33.1035 10.0868 33.5898 9.60042 33.5898 9.00043C33.5898 8.40045 33.1035 7.91406 32.5035 7.91406C31.9035 7.91406 31.4171 8.40045 31.4171 9.00043Z" fill="#2F8FFF"/>
<path fill-rule="evenodd" clip-rule="evenodd" d="M32.5043 8.21426C32.9386 8.21426 33.2906 8.56633 33.2906 9.00063C33.2906 9.43493 32.9386 9.787 32.5043 9.787C32.07 9.787 31.7179 9.43493 31.7179 9.00063C31.7179 8.56633 32.07 8.21426 32.5043 8.21426ZM33.8906 9.00063C33.8906 8.23496 33.2699 7.61426 32.5043 7.61426C31.7386 7.61426 31.1179 8.23496 31.1179 9.00063C31.1179 9.7663 31.7386 10.387 32.5043 10.387C33.2699 10.387 33.8906 9.7663 33.8906 9.00063Z" fill="#2F8FFF"/>
</svg>
