<svg width="160" height="160" viewBox="0 0 160 160" fill="none" xmlns="http://www.w3.org/2000/svg">
<path d="M75 2.88675C78.094 1.10042 81.906 1.10042 85 2.88675L144.282 37.1132C147.376 38.8996 149.282 42.2008 149.282 45.7735V114.226C149.282 117.799 147.376 121.1 144.282 122.887L85 157.113C81.906 158.9 78.094 158.9 75 157.113L15.718 122.887C12.6239 121.1 10.718 117.799 10.718 114.226V45.7735C10.718 42.2008 12.624 38.8996 15.718 37.1132L75 2.88675Z" fill="#D0DFFB" fill-opacity="0.3"/>
<g clip-path="url(#clip0_14_13504)">
<path d="M94.5 63.5H81V69.5H92.5V92.5H81V98.5H94.5L98 95V67L94.5 63.5Z" fill="#A1B3D6" fill-opacity="0.4"/>
<path fill-rule="evenodd" clip-rule="evenodd" d="M80.5 73.5V56.5C80 55 78.2 52 75 52C71.861 52 70.5695 53.8475 69.6757 55.1261C69.4305 55.4768 69.2153 55.7847 69 56C68.2 56.8 68.3334 57 68.5 57C67.6667 57 65.5001 57.4 63.5001 59C61.0001 61 60.0001 63.5 60.0001 64C60.0001 64.1101 59.9758 64.3172 59.9433 64.5945C59.8283 65.5767 59.6102 67.4404 60.0001 69L60.0002 69.0005C60.5001 71 60.5001 71 60.0001 71.5C59.8524 71.6477 59.6175 71.7953 59.3212 71.9816C58.614 72.4261 57.557 73.0906 56.5 74.5C56.3588 74.6883 56.222 74.8677 56.0901 75.0407C54.8206 76.706 54 77.7824 54 80.5C54 83.5 55.5 86.5 57 88C57.713 88.713 58.5389 89.313 59.2093 89.8C59.9494 90.3377 60.5 90.7377 60.5 91C60.5 91.1667 60.3889 91.3889 60.2407 91.6852C59.9444 92.2778 59.5 93.1667 59.5 94.5C59.5 94.9274 59.4772 95.3091 59.4559 95.6647C59.3776 96.9731 59.3206 97.9274 60.5 99.5C62 101.5 63.5 103 65 104C65.859 104.573 67.046 104.653 67.9035 104.712C68.5435 104.755 69 104.786 69 105C69 105.5 70.5 109 72 109.5C73.5 110 77 110 78 109C79 108 80.5 106.5 80.5 105.5V98L80.5 73.5ZM69 70C70.6569 70 72 68.6569 72 67C72 65.3431 70.6569 64 69 64C67.3431 64 66 65.3431 66 67C66 68.6569 67.3431 70 69 70ZM72 95C72 96.6569 70.6569 98 69 98C67.3431 98 66 96.6569 66 95C66 93.3431 67.3431 92 69 92C70.6569 92 72 93.3431 72 95ZM68 84C69.6569 84 71 82.6569 71 81C71 79.3431 69.6569 78 68 78C66.3431 78 65 79.3431 65 81C65 82.6569 66.3431 84 68 84Z" fill="#C4B3E8"/>
<path d="M103.785 76.6395C104.432 76.6395 104.957 76.1148 104.957 75.4676C104.957 74.8204 104.432 74.2957 103.785 74.2957H99.3459V71.1053H103.785C104.432 71.1053 104.957 70.5806 104.957 69.9334C104.957 69.2862 104.432 68.7615 103.785 68.7615H99.3459V66.8442C99.3459 66.5336 99.2226 66.2357 99.003 66.0159L95.6143 62.6244C95.3945 62.4045 95.0963 62.2808 94.7853 62.2808H92.8675V57.8455C92.8675 57.1983 92.3428 56.6736 91.6956 56.6736C91.0484 56.6736 90.5238 57.1983 90.5238 57.8455V62.2808H87.3327V57.8455C87.3327 57.1983 86.8081 56.6736 86.1609 56.6736C85.5136 56.6736 84.989 57.1983 84.989 57.8455V62.2808H81.8012V58.0813C81.8012 54.1766 78.6243 51 74.7191 51C71.5241 51 68.7474 53.1595 67.9005 56.1596C65.4651 56.4071 63.2086 57.4839 61.4673 59.2467C59.5009 61.2377 58.418 63.8757 58.418 66.6748C58.418 68.0638 58.6922 69.4396 59.218 70.7149C57.5731 71.589 56.1617 72.8461 55.0918 74.3996C53.7515 76.3459 53.043 78.6277 53.043 80.9984C53.043 85.3625 55.4291 89.277 59.2175 91.2851C58.6922 92.5581 58.4182 93.9327 58.4182 95.322C58.4182 98.121 59.5012 100.759 61.4676 102.75C63.2087 104.513 65.4652 105.59 67.9006 105.837C68.7474 108.839 71.5244 111 74.7194 111C78.6244 111 81.8015 107.823 81.8015 103.919V99.7159H84.9892V104.154C84.9892 104.802 85.5139 105.326 86.1611 105.326C86.8083 105.326 87.333 104.802 87.333 104.154V99.7159H90.524V104.154C90.524 104.802 91.0486 105.326 91.6959 105.326C92.3431 105.326 92.8677 104.802 92.8677 104.154V99.7159H94.7855C95.0963 99.7159 95.3943 99.5925 95.6141 99.3727L99.0029 95.9844C99.2226 95.7647 99.3461 95.4666 99.3461 95.1558V93.2351H103.785C104.432 93.2351 104.957 92.7104 104.957 92.0632C104.957 91.416 104.432 90.8913 103.785 90.8913H99.3459V87.7043H103.785C104.432 87.7043 104.957 87.1796 104.957 86.5324C104.957 85.8852 104.432 85.3605 103.785 85.3605H99.3459V82.1702H103.785C104.432 82.1702 104.957 81.6456 104.957 80.9984C104.957 80.3511 104.432 79.8265 103.785 79.8265H99.3459V76.6395H103.785ZM74.7194 108.656C72.7754 108.656 71.0638 107.461 70.3432 105.735C71.198 105.581 72.0314 105.321 72.8329 104.954C73.9976 104.419 75.0393 103.687 75.9289 102.778C76.3816 102.316 76.3737 101.574 75.9113 101.121C75.4488 100.669 74.707 100.676 74.254 101.139C73.5655 101.842 72.7585 102.409 71.8553 102.823C70.9009 103.261 69.8894 103.504 68.8484 103.546C64.3868 103.472 60.762 99.7895 60.762 95.3216C60.762 93.9098 61.1247 92.5188 61.8108 91.2987C61.9763 91.0046 62.0069 90.6536 61.8948 90.3354C61.7829 90.0171 61.5392 89.7626 61.2262 89.6368C57.6789 88.2122 55.3867 84.8213 55.3867 80.9984C55.3867 77.1744 57.6786 73.7849 61.2255 72.3633C61.9223 71.9865 62.1176 71.4327 61.8115 70.7021C61.1249 69.4785 60.762 68.0858 60.762 66.6749C60.762 62.207 64.3868 58.524 68.8484 58.4504C69.8828 58.4925 70.8952 58.7354 71.8551 59.173C72.7599 59.5883 73.5664 60.1556 74.2523 60.8592C74.482 61.0948 74.7866 61.2131 75.0916 61.2131C75.3864 61.2131 75.6816 61.1025 75.9094 60.8804C76.3729 60.4287 76.3823 59.6866 75.9305 59.2233C75.0427 58.3126 74.0004 57.579 72.83 57.0417C72.0261 56.6753 71.1938 56.4158 70.3431 56.2629C71.0637 54.538 72.7752 53.3438 74.7194 53.3438C77.3321 53.3438 79.4577 55.4691 79.4577 58.0813V72.4488H75.8095L72.7004 69.3401C73.0313 68.736 73.2078 68.0554 73.2078 67.3474C73.2078 66.237 72.7754 65.1929 71.9898 64.4077C70.3689 62.787 67.7313 62.7868 66.1102 64.4077C65.3249 65.1929 64.8924 66.237 64.8924 67.3473C64.8924 68.4577 65.3248 69.5017 66.1102 70.287C66.9207 71.0973 67.9853 71.5025 69.05 71.5025C69.7367 71.5025 70.4229 71.3329 71.0416 70.9957L74.4953 74.4491C74.7453 74.6728 75.0215 74.7873 75.3239 74.7923H79.4576V79.8263H72.1138C71.6062 78.1043 70.0105 76.8432 68.1249 76.8432C65.8336 76.8432 63.9696 78.7071 63.9696 80.9981C63.9696 83.2909 65.8336 85.1563 68.1249 85.1563C70.0109 85.1563 71.6068 83.8938 72.1141 82.17H79.4576V87.2039H75.3239C75.2925 87.2039 75.2656 87.2055 75.2407 87.2079C74.9691 87.2271 74.7027 87.3396 74.495 87.5474L71.0411 91.0036C69.4638 90.144 67.4432 90.3797 66.1101 91.7126C65.324 92.4987 64.8916 93.5435 64.8923 94.6548C64.893 95.7645 65.326 96.8068 66.1101 97.5887C66.9208 98.3993 67.9855 98.8044 69.0503 98.8044C70.1146 98.8044 71.1789 98.3994 71.9886 97.5899C72.7738 96.8068 73.2068 95.7646 73.2075 94.6549C73.208 93.9459 73.0314 93.2644 72.6999 92.6595L75.8095 89.5478H79.4574V103.919C79.4576 106.531 77.3321 108.656 74.7194 108.656ZM70.864 67.3475C70.864 67.8319 70.6754 68.2873 70.3328 68.6298C69.6255 69.337 68.4748 69.337 67.7675 68.6298C67.4249 68.2873 67.2362 67.8319 67.2362 67.3475C67.2362 66.8632 67.4249 66.4077 67.7675 66.0653C68.4748 65.3582 69.6256 65.3582 70.3328 66.0653C70.6754 66.4077 70.864 66.8631 70.864 67.3475ZM69.9396 80.9984C69.9396 81.9988 69.1255 82.8128 68.1249 82.8128C67.1261 82.8128 66.3134 81.9988 66.3134 80.9984C66.3134 79.9998 67.1261 79.1872 68.1249 79.1872C69.1255 79.1872 69.9396 79.9997 69.9396 80.9984ZM70.864 94.6534C70.8637 95.1363 70.6755 95.5898 70.3328 95.9314C69.6255 96.6386 68.4747 96.6387 67.7663 95.9303C67.4248 95.5898 67.2365 95.1363 67.2362 94.6534C67.2359 94.1688 67.4246 93.7131 67.7675 93.3702C68.4747 92.6632 69.6255 92.6631 70.3326 93.3701C70.3327 93.3702 70.3328 93.3703 70.3329 93.3705L70.333 93.3707C70.6758 93.7136 70.8644 94.1691 70.864 94.6534ZM97.0021 94.6703L94.3 97.3722H81.8014V93.8994H92.3568C93.004 93.8994 93.5287 93.3748 93.5287 92.7275V86.2567C93.5287 85.6095 93.004 85.0848 92.3568 85.0848C91.7096 85.0848 91.1849 85.6095 91.1849 86.2567V91.5557H81.8014V70.4443H91.1849V75.73C91.1849 76.3772 91.7096 76.9018 92.3568 76.9018C93.004 76.9018 93.5287 76.3772 93.5287 75.73V69.2725C93.5287 68.6252 93.004 68.1006 92.3568 68.1006H81.8014V64.6246H94.2996L97.0021 67.3294V94.6703Z" fill="#222A3F"/>
<path d="M92.3555 79.8232C91.7082 79.8232 91.1836 80.3479 91.1836 80.9951V80.9984C91.1836 81.6456 91.7082 82.1686 92.3555 82.1686C93.0027 82.1686 93.5273 81.6424 93.5273 80.9951C93.5273 80.3479 93.0026 79.8232 92.3555 79.8232Z" fill="#222A3F"/>
</g>
<defs>
<clipPath id="clip0_14_13504">
<rect width="60" height="60" fill="white" transform="translate(49 51)"/>
</clipPath>
</defs>
</svg>
