<svg width="45" height="47" viewBox="0 0 45 47" fill="none" xmlns="http://www.w3.org/2000/svg">
<path d="M38.0012 11.1036C38.4795 11.3798 39.0911 11.2159 39.3672 10.7376C39.6434 10.2593 39.4795 9.64772 39.0012 9.37158L38.0012 11.1036ZM42.9868 17C42.9868 16.4477 42.5391 16 41.9868 16C41.4345 16 40.9868 16.4477 40.9868 17H42.9868ZM6.01562 10.5179L5.51562 9.65192L6.01562 10.5179ZM25.5012 44.2679L26.0012 45.134L25.5012 44.2679ZM38.9868 36.4821L38.4868 35.616L38.9868 36.4821ZM38.4868 35.616L25.0012 43.4019L26.0012 45.134L39.4868 37.3481L38.4868 35.616ZM20.0012 43.4019L6.51563 35.616L5.51563 37.3481L19.0012 45.134L20.0012 43.4019ZM4.01562 31.2859V15.7141H2.01562V31.2859H4.01562ZM6.51562 11.384L20.0012 3.59808L19.0012 1.86603L5.51562 9.65192L6.51562 11.384ZM25.0012 3.59808L38.0012 11.1036L39.0012 9.37158L26.0012 1.86603L25.0012 3.59808ZM40.9868 17V31.2859H42.9868V17H40.9868ZM4.01562 15.7141C4.01562 13.9278 4.96862 12.2771 6.51562 11.384L5.51562 9.65192C3.34982 10.9024 2.01562 13.2132 2.01562 15.7141H4.01562ZM6.51563 35.616C4.96862 34.7229 4.01562 33.0722 4.01562 31.2859H2.01562C2.01562 33.7868 3.34982 36.0976 5.51563 37.3481L6.51563 35.616ZM25.0012 43.4019C23.4542 44.2951 21.5482 44.2951 20.0012 43.4019L19.0012 45.134C21.167 46.3844 23.8354 46.3844 26.0012 45.134L25.0012 43.4019ZM39.4868 37.3481C41.6526 36.0976 42.9868 33.7868 42.9868 31.2859H40.9868C40.9868 33.0722 40.0338 34.7229 38.4868 35.616L39.4868 37.3481ZM20.0012 3.59808C21.5482 2.70491 23.4542 2.70491 25.0012 3.59808L26.0012 1.86603C23.8354 0.615596 21.167 0.615596 19.0012 1.86603L20.0012 3.59808Z" fill="#F9F9F9"/>
<circle cx="41.5" cy="12.7998" r="1" fill="#F9F9F9"/>
<g clip-path="url(#clip0_14_13453)">
<path d="M24.2822 19.5236C24.3037 19.4993 24.4045 19.42 24.8002 19.42L26.0978 19.4195C26.5199 19.4195 26.8631 19.0768 26.8631 18.6555V16.3921C26.8631 15.9716 26.5204 15.6288 26.099 15.6281L24.1716 15.625C22.9821 15.625 21.9709 16.0166 21.2473 16.7577C20.527 17.4953 20.1461 18.5251 20.1461 19.7355V20.9563H18.6717C18.2496 20.9563 17.9062 21.299 17.9062 21.7203V24.1579C17.9062 24.5792 18.2496 24.9219 18.6717 24.9219H20.1461V30.611C20.1461 31.0323 20.4895 31.375 20.9116 31.375H23.4388C23.8609 31.375 24.2043 31.0323 24.2043 30.611V24.922H26.0065C26.4286 24.922 26.7719 24.5792 26.7719 24.1581L26.7728 21.7204C26.7728 21.4437 26.622 21.1876 26.379 21.0522C26.2665 20.9894 26.1355 20.9563 26.0004 20.9563H24.2043V19.9919C24.2043 19.6775 24.2467 19.5637 24.2822 19.5236Z" fill="#F9F9F9" stroke="#191628" stroke-width="0.4"/>
</g>
<defs>
<clipPath id="clip0_14_13453">
<rect width="15.75" height="15.75" fill="white" transform="translate(14.625 15.625)"/>
</clipPath>
</defs>
</svg>
