<svg width="160" height="160" viewBox="0 0 160 160" fill="none" xmlns="http://www.w3.org/2000/svg">
<path d="M75 2.88675C78.094 1.10042 81.906 1.10042 85 2.88675L144.282 37.1132C147.376 38.8996 149.282 42.2008 149.282 45.7735V114.226C149.282 117.799 147.376 121.1 144.282 122.887L85 157.113C81.906 158.9 78.094 158.9 75 157.113L15.718 122.887C12.6239 121.1 10.718 117.799 10.718 114.226V45.7735C10.718 42.2008 12.624 38.8996 15.718 37.1132L75 2.88675Z" fill="#D0DFFB" fill-opacity="0.3"/>
<path fill-rule="evenodd" clip-rule="evenodd" d="M79 95.7765C88.6225 94.3291 96 86.0261 96 76C96 71.3768 94.4313 67.1199 91.7972 63.7327C91.4034 63.2263 90.4018 63.5254 89.3919 63.827C88.4288 64.1145 87.4581 64.4044 87 64C86.5464 63.5997 86.5963 62.5175 86.6462 61.4342C86.6994 60.2783 86.7527 59.121 86.1945 58.7896C83.2092 57.0175 79.7234 56 76 56C64.9543 56 56 64.9543 56 76C56 80.7945 57.6871 85.195 60.5 88.6402C60.7626 88.9618 61.042 88.7068 61.4243 88.3578C62.0492 87.7874 62.949 86.966 64.5 88C66.4183 89.2789 65.8966 90.7324 65.524 91.7707C65.3139 92.3562 65.1511 92.8097 65.5 93.0253C67.7439 94.4121 70.2824 95.3677 73 95.7765C73.2801 95.8186 73.154 94.4208 72.9721 92.4039C72.8184 90.701 72.625 88.5567 72.6026 86.4653C68.1902 85.0339 65 80.8895 65 76C65 69.9249 69.9249 65 76 65C82.0751 65 87 69.9249 87 76C87 80.9639 83.712 85.1598 79.1952 86.5288C79.2298 88.6528 79.0734 90.821 78.9505 92.5238C78.8095 94.4784 78.7128 95.8197 79 95.7765Z" fill="#A1B3D6" fill-opacity="0.4"/>
<path d="M81 76C81 78.7614 78.7614 79 76 79C73.2386 79 71 78.7614 71 76C71 73.2386 73.2386 71 76 71C78.7614 71 81 73.2386 81 76Z" fill="#B28CFF"/>
<path d="M65.9956 94.0456C67.7907 92.2505 67.7907 89.3291 65.9956 87.534C65.1257 86.6646 63.9697 86.1854 62.7398 86.1854C62.0288 86.1854 61.343 86.3462 60.7228 86.6495C58.536 83.5209 57.3842 79.8597 57.3842 76.0088C57.3842 66.1534 65.0831 57.989 74.9111 57.4214C75.5795 57.3826 76.0894 56.8098 76.0511 56.1419C76.0123 55.4735 75.4395 54.965 74.7716 55.0019C63.6627 55.6438 54.9609 64.871 54.9609 76.0088C54.9609 80.4524 56.319 84.6732 58.8936 88.2582C57.7172 90.0443 57.914 92.4757 59.484 94.0456C60.3539 94.9151 61.5099 95.3942 62.7398 95.3942C63.9697 95.3942 65.1257 94.9151 65.9956 94.0456ZM61.1973 89.2478C61.6225 88.8225 62.1812 88.6097 62.7398 88.6097C63.298 88.6097 63.8566 88.8225 64.2818 89.2478C65.1323 90.0978 65.1323 91.4819 64.2818 92.3319C63.4314 93.1824 62.0478 93.1824 61.1973 92.3319C60.3472 91.4819 60.3472 90.0983 61.1973 89.2478Z" fill="#222A3F"/>
<path d="M94.6857 96.9791C93.9199 96.9791 93.1999 97.1788 92.5751 97.5288C92.0212 95.7725 90.3769 94.4953 88.4399 94.4953C87.2143 94.4953 86.106 95.0066 85.317 95.8269C85.098 95.5998 84.8544 95.3969 84.5909 95.2214C87.3836 93.9712 89.8968 92.1141 91.9303 89.7618C95.2292 85.9445 97.0461 81.06 97.0461 76.0086C97.0461 71.5674 95.688 67.3443 93.1138 63.7588C94.2902 61.9726 94.0935 59.5418 92.523 57.9713C90.7279 56.1762 87.807 56.1762 86.0114 57.9713C84.2163 59.7665 84.2163 62.6878 86.0114 64.483C86.9092 65.3808 88.088 65.8297 89.2672 65.8297C89.9583 65.8297 90.6484 65.674 91.2828 65.3656C93.4705 68.4951 94.6228 72.1592 94.6228 76.0086C94.6228 84.7737 88.6726 92.1827 80.2826 94.1344V87.6123C85.0876 85.8385 88.3704 81.1939 88.3704 76.0086C88.3704 69.19 82.8228 63.6424 76.0037 63.6424C69.1851 63.6424 63.6374 69.1895 63.6374 76.0086C63.6374 78.6997 64.4875 81.2587 66.0948 83.4081C67.4968 85.2827 69.4367 86.7387 71.6131 87.5693V105.392L70.0909 102.895C68.8118 100.795 66.1416 100.114 64.0126 101.343C61.9875 102.513 61.1976 105.078 62.2198 107.195L66.7395 116.325C66.951 116.752 67.3805 117 67.8265 117C68.0072 117 68.1903 116.96 68.3629 116.874C68.9627 116.577 69.2082 115.85 68.9116 115.251L64.3966 106.13C63.9288 105.161 64.2921 103.98 65.2244 103.442C66.188 102.886 67.4429 103.206 68.0219 104.156L71.79 110.339C72.0729 110.803 72.6296 111.022 73.1523 110.875C73.675 110.728 74.0364 110.252 74.0364 109.708V81.9077C74.0364 80.8538 74.894 79.9967 75.9479 79.9967C77.0017 79.9967 77.8593 80.8538 77.8593 81.9077V86.7004C77.8589 86.7089 77.8593 86.7174 77.8593 86.7264V104.92C77.8593 105.589 78.4014 106.131 79.0707 106.131C79.7401 106.131 80.2826 105.589 80.2826 104.92V98.8301C80.2826 97.7762 81.1397 96.9186 82.1936 96.9186C83.2475 96.9186 84.1051 97.7762 84.1051 98.8301V105.361C84.1051 106.03 84.6477 106.573 85.3165 106.573C85.9859 106.573 86.5284 106.03 86.5284 105.361V98.8301C86.5284 97.7762 87.386 96.9186 88.4399 96.9186C89.4938 96.9186 90.3509 97.7762 90.3509 98.8301V105.442C90.3509 106.112 90.8935 106.654 91.5628 106.654C92.2321 106.654 92.7742 106.112 92.7742 105.442V101.314C92.7742 100.26 93.6318 99.4024 94.6857 99.4024C95.7396 99.4024 96.5972 100.26 96.5972 101.314V115.787C96.5972 116.457 97.1393 116.999 97.8086 116.999C98.4779 116.999 99.0205 116.457 99.0205 115.787V101.314C99.0205 98.9237 97.0759 96.9791 94.6857 96.9791ZM87.7252 62.7697C86.8747 61.9192 86.8747 60.5356 87.7252 59.6851C88.1504 59.2599 88.7086 59.0475 89.2672 59.0475C89.8259 59.0475 90.3845 59.2599 90.8097 59.6851C91.6598 60.5356 91.6598 61.9192 90.8097 62.7697C89.9593 63.6197 88.5752 63.6197 87.7252 62.7697ZM66.0607 76.0086C66.0607 70.5258 70.5213 66.0652 76.0041 66.0652C81.4865 66.0652 85.9471 70.5258 85.9471 76.0086C85.9471 79.8694 83.6846 83.358 80.2826 84.9857V81.9077C80.2826 81.2275 80.1246 80.5832 79.8437 80.0095C80.9184 78.9735 81.5536 77.5294 81.5536 76.0086C81.5536 72.9482 79.0641 70.4587 76.0041 70.4587C72.9437 70.4587 70.4542 72.9482 70.4542 76.0086C70.4542 77.4849 71.0554 78.9035 72.0889 79.9376C71.7857 80.5288 71.6131 81.1986 71.6131 81.9077V84.9346C68.239 83.2856 66.0607 79.8661 66.0607 76.0086ZM73.7492 78.1741C73.1906 77.5961 72.8775 76.8303 72.8775 76.0086C72.8775 74.2845 74.28 72.882 76.0037 72.882C77.7278 72.882 79.1304 74.2845 79.1304 76.0086C79.1304 76.8421 78.7917 77.6358 78.2155 78.2158C77.5552 77.8085 76.7785 77.5734 75.9479 77.5734C75.1456 77.5734 74.3945 77.7929 73.7492 78.1741Z" fill="#222A3F"/>
<path d="M80.2934 57.8549C80.6123 57.8549 80.9249 57.7253 81.1501 57.4997C81.3757 57.2745 81.5053 56.9619 81.5053 56.6431C81.5053 56.3247 81.3757 56.012 81.1501 55.7864C80.9249 55.5612 80.6123 55.4316 80.2934 55.4316C79.9751 55.4316 79.6624 55.5612 79.4373 55.7864C79.2116 56.012 79.082 56.3247 79.082 56.6431C79.082 56.9619 79.2116 57.2745 79.4373 57.4997C79.6624 57.7253 79.9751 57.8549 80.2934 57.8549Z" fill="#222A3F"/>
</svg>
