<svg width="45" height="47" viewBox="0 0 45 47" fill="none" xmlns="http://www.w3.org/2000/svg">
<path d="M38.0012 11.1036C38.4795 11.3798 39.0911 11.2159 39.3672 10.7376C39.6434 10.2593 39.4795 9.64772 39.0012 9.37158L38.0012 11.1036ZM42.9868 17C42.9868 16.4477 42.5391 16 41.9868 16C41.4345 16 40.9868 16.4477 40.9868 17H42.9868ZM6.01562 10.5179L5.51562 9.65192L6.01562 10.5179ZM25.5012 44.2679L26.0012 45.134L25.5012 44.2679ZM38.9868 36.4821L38.4868 35.616L38.9868 36.4821ZM38.4868 35.616L25.0012 43.4019L26.0012 45.134L39.4868 37.3481L38.4868 35.616ZM20.0012 43.4019L6.51563 35.616L5.51563 37.3481L19.0012 45.134L20.0012 43.4019ZM4.01562 31.2859V15.7141H2.01562V31.2859H4.01562ZM6.51562 11.384L20.0012 3.59808L19.0012 1.86603L5.51562 9.65192L6.51562 11.384ZM25.0012 3.59808L38.0012 11.1036L39.0012 9.37158L26.0012 1.86603L25.0012 3.59808ZM40.9868 17V31.2859H42.9868V17H40.9868ZM4.01562 15.7141C4.01562 13.9278 4.96862 12.2771 6.51562 11.384L5.51562 9.65192C3.34982 10.9024 2.01562 13.2132 2.01562 15.7141H4.01562ZM6.51563 35.616C4.96862 34.7229 4.01562 33.0722 4.01562 31.2859H2.01562C2.01562 33.7868 3.34982 36.0976 5.51563 37.3481L6.51563 35.616ZM25.0012 43.4019C23.4542 44.2951 21.5482 44.2951 20.0012 43.4019L19.0012 45.134C21.167 46.3844 23.8354 46.3844 26.0012 45.134L25.0012 43.4019ZM39.4868 37.3481C41.6526 36.0976 42.9868 33.7868 42.9868 31.2859H40.9868C40.9868 33.0722 40.0338 34.7229 38.4868 35.616L39.4868 37.3481ZM20.0012 3.59808C21.5482 2.70491 23.4542 2.70491 25.0012 3.59808L26.0012 1.86603C23.8354 0.615596 21.167 0.615596 19.0012 1.86603L20.0012 3.59808Z" fill="#F9F9F9"/>
<circle cx="41.5" cy="12.7998" r="1" fill="#F9F9F9"/>
<g clip-path="url(#clip0_14_13438)">
<path d="M22.5 20.125C20.6391 20.125 19.125 21.6391 19.125 23.5C19.125 25.3609 20.6391 26.875 22.5 26.875C24.3609 26.875 25.875 25.3609 25.875 23.5C25.875 21.6391 24.3611 20.125 22.5 20.125Z" fill="#F9F9F9"/>
<path d="M29.6863 16.3137C28.5167 15.1441 26.9676 14.5 25.3243 14.5H19.6757C18.0324 14.5 16.4832 15.1441 15.3137 16.3137C14.1441 17.4832 13.5 19.0324 13.5 20.6757V26.3242C13.5 27.9676 14.1441 29.5168 15.3137 30.6863C16.4832 31.8559 18.0324 32.5 19.6757 32.5H25.3243C26.9676 32.5 28.5168 31.8559 29.6863 30.6863C30.8558 29.5168 31.5 27.9676 31.5 26.3242V20.6757C31.5 19.0324 30.8558 17.4832 29.6863 16.3137ZM22.5 28.2637C19.8733 28.2637 17.7363 26.1267 17.7363 23.5C17.7363 20.8733 19.8733 18.7363 22.5 18.7363C25.1267 18.7363 27.2637 20.8733 27.2637 23.5C27.2637 26.1267 25.1267 28.2637 22.5 28.2637ZM27.7773 18.9686C27.6792 19.0666 27.5431 19.1229 27.4044 19.1229C27.2656 19.1229 27.1298 19.0666 27.0317 18.9686C26.9333 18.8704 26.8771 18.7344 26.8771 18.5956C26.8771 18.4567 26.9333 18.3206 27.0317 18.2226C27.1298 18.1244 27.2655 18.0682 27.4044 18.0682C27.5431 18.0682 27.6792 18.1244 27.7773 18.2226C27.8755 18.3206 27.9318 18.4567 27.9318 18.5956C27.9318 18.7343 27.8755 18.8704 27.7773 18.9686Z" fill="#F9F9F9"/>
</g>
<defs>
<clipPath id="clip0_14_13438">
<rect width="18" height="18" fill="white" transform="translate(13.5 14.5)"/>
</clipPath>
</defs>
</svg>
