<svg width="160" height="160" viewBox="0 0 160 160" fill="none" xmlns="http://www.w3.org/2000/svg">
<path d="M75 2.88675C78.094 1.10042 81.906 1.10042 85 2.88675L144.282 37.1132C147.376 38.8996 149.282 42.2008 149.282 45.7735V114.226C149.282 117.799 147.376 121.1 144.282 122.887L85 157.113C81.906 158.9 78.094 158.9 75 157.113L15.718 122.887C12.6239 121.1 10.718 117.799 10.718 114.226V45.7735C10.718 42.2008 12.624 38.8996 15.718 37.1132L75 2.88675Z" fill="#F1F6FE"/>
<g clip-path="url(#clip0_14_13469)">
<path d="M113.492 61.9054L103.398 54.1851C102.381 53.4075 101.117 52.9795 99.8376 52.9795H97.4049C97.1558 52.2738 96.7816 51.5848 96.3006 50.9512C94.5207 48.6138 91.3359 47.6741 89.6186 48.9801C88.783 49.6155 88.3267 50.7757 88.3669 52.1634C88.4055 53.494 88.891 54.8371 89.7342 55.9455C90.0212 56.3226 90.3414 56.672 90.6846 56.9838C89.3614 58.59 88.208 60.3892 87.2397 62.3481H82.6964C80.9432 62.3481 79.5168 63.7744 79.5168 65.5276C79.5168 67.2808 80.9432 68.7071 82.6964 68.7071H84.9097C84.3255 70.9906 83.9642 73.3441 83.8403 75.7243C83.7543 77.3826 82.3774 78.6815 80.7058 78.6815H71.976C70.2882 78.6815 68.6354 78.0986 67.3224 77.0407L62.4271 73.0932C60.9012 71.8633 58.8551 71.625 57.0866 72.471C55.3181 73.3171 54.2194 75.0604 54.2194 77.0207V100.31C52.909 99.7668 51.6168 99.177 50.3468 98.5407C48.1859 97.458 45.5466 98.3354 44.4639 100.496C43.3813 102.657 44.2585 105.296 46.4195 106.379C55.8643 111.112 66.3782 113.613 76.8246 113.613C83.6205 113.613 90.4098 112.568 97.0035 110.506C97.5594 110.332 97.8692 109.741 97.6954 109.185C97.5216 108.629 96.9299 108.319 96.3741 108.493C89.9843 110.491 83.4069 111.504 76.8246 111.504C66.7045 111.504 56.5175 109.08 47.3645 104.494C46.2433 103.932 45.7882 102.562 46.35 101.441C46.9117 100.32 48.2811 99.8653 49.4021 100.427C52.8489 102.154 59.8406 104.697 63.4995 103.5C63.9995 103.5 64.2944 99.5 66.4995 96.5C68.7046 93.5 75.3518 91.5037 82.2254 93.5C89.099 95.4963 89.4619 103 89.9995 103.5C90.5371 104 98.7988 103.157 104.247 100.427C105.368 99.8653 106.737 100.32 107.299 101.441C107.861 102.563 107.406 103.932 106.285 104.494C104.58 105.348 102.814 106.138 101.035 106.843C100.493 107.058 100.228 107.671 100.443 108.212C100.657 108.754 101.27 109.019 101.812 108.804C103.648 108.077 105.47 107.261 107.23 106.379C109.391 105.296 110.268 102.657 109.185 100.496C108.102 98.3357 105.463 97.4582 103.302 98.5409C102.032 99.1772 100.741 99.7668 99.4303 100.31V85.6859C99.4303 80.9658 99.8904 76.9563 100.837 73.428C100.854 73.3657 100.911 73.3223 100.977 73.3223H109.626C112.397 73.3223 114.763 71.6258 115.652 69.0003C116.541 66.3746 115.693 63.5898 113.492 61.9054ZM81.6259 65.5276C81.6259 64.9375 82.106 64.4574 82.6961 64.4574H91.4601C92.0502 64.4574 92.5303 64.9375 92.5303 65.5276C92.5303 66.1177 92.0502 66.5977 91.4601 66.5977H82.6961C82.106 66.5977 81.6259 66.1177 81.6259 65.5276ZM81.8345 80.668C82.09 81.1679 82.2254 81.7189 82.2254 82.2935C82.2254 84.2747 80.6134 85.8867 78.6322 85.8867C76.6509 85.8867 75.0389 84.2747 75.0389 82.2935C75.0389 81.7702 75.1522 81.2595 75.3685 80.7907H80.7055C81.0929 80.7907 81.4704 80.7474 81.8345 80.668ZM56.3283 87.8449C56.4404 87.8345 56.5529 87.8273 56.6662 87.8273C58.6475 87.8273 60.2595 89.4393 60.2595 91.4206C60.2595 93.4019 58.6475 95.0138 56.6662 95.0138C56.5529 95.0138 56.4404 95.0068 56.3283 94.9963V87.8449ZM97.3204 87.2353C96.9269 87.3792 96.5094 87.4555 96.0875 87.4555C94.1063 87.4555 92.4943 85.8437 92.4943 83.8623C92.4943 81.8809 94.1063 80.269 96.0875 80.269C96.5836 80.269 97.0685 80.3725 97.5174 80.5679C97.386 82.1853 97.3204 83.8869 97.3204 85.6858V87.2353ZM113.654 68.3235C113.18 69.7203 111.874 71.2128 109.625 71.2128H107.126C106.038 70.1577 105.419 68.7108 105.419 67.1867C105.419 64.572 107.264 62.2943 109.776 61.719L112.21 63.5806C113.996 64.9471 114.127 66.9267 113.654 68.3235Z" fill="#A1B3D6" fill-opacity="0.4"/>
<path d="M106.501 105.5L101.501 108C100.501 108.5 87.5012 112 82.0012 112.5C76.5012 113 70.5012 112.5 65.5012 111.5C60.5012 110.5 51.5013 108.5 48.0013 106.5C44.5013 104.5 45.0013 103.5 45.0013 102C45.0013 100.5 46.5013 99.5 48.5013 99.5C50.5013 99.5 57.5013 102.5 64.0013 104.5C70.5013 106.5 77.5013 105.5 82.5013 105.5C87.5013 105.5 95.0013 103.5 100.001 101C105.001 98.5 105.001 99.5 107.001 100C108.601 100.4 108.668 102.5 108.501 103.5L106.501 105.5Z" fill="#5FA9FF"/>
<path d="M113.492 61.9054L103.398 54.1851C102.381 53.4075 101.117 52.9795 99.8376 52.9795H97.4049C97.1558 52.2738 96.7816 51.5848 96.3006 50.9512C94.5207 48.6138 91.3359 47.6741 89.6186 48.9801C88.783 49.6155 88.3267 50.7757 88.3669 52.1634C88.4055 53.494 88.891 54.8371 89.7342 55.9455C90.0212 56.3226 90.3414 56.672 90.6846 56.9838C89.3614 58.59 88.208 60.3892 87.2397 62.3481H82.6964C80.9432 62.3481 79.5168 63.7744 79.5168 65.5276C79.5168 67.2808 80.9432 68.7071 82.6964 68.7071H84.9097C84.3255 70.9906 83.9642 73.3441 83.8403 75.7243C83.7543 77.3826 82.3774 78.6815 80.7058 78.6815H71.976C70.2882 78.6815 68.6354 78.0986 67.3224 77.0407L62.4271 73.0932C60.9012 71.8633 58.8551 71.625 57.0866 72.471C55.3181 73.3171 54.2194 75.0604 54.2194 77.0207V100.31C52.909 99.7668 51.6168 99.177 50.3468 98.5407C48.1859 97.458 45.5466 98.3354 44.4639 100.496C43.3813 102.657 44.2585 105.296 46.4195 106.379C55.8643 111.112 66.3782 113.613 76.8246 113.613C83.6205 113.613 90.4098 112.568 97.0035 110.506C97.5594 110.332 97.8692 109.741 97.6954 109.185C97.5216 108.629 96.9299 108.319 96.3741 108.493C89.9842 110.491 83.4069 111.504 76.8246 111.504C66.7045 111.504 56.5175 109.08 47.3645 104.494C46.2433 103.932 45.7882 102.562 46.35 101.441C46.9117 100.32 48.2811 99.8653 49.4021 100.427C57.9168 104.693 67.4055 106.955 76.8246 106.955C86.591 106.955 96.0552 104.532 104.247 100.427C105.368 99.8653 106.737 100.32 107.299 101.441C107.861 102.563 107.406 103.932 106.285 104.494C104.58 105.348 102.814 106.138 101.035 106.843C100.493 107.058 100.228 107.671 100.443 108.212C100.657 108.754 101.27 109.019 101.812 108.804C103.648 108.077 105.47 107.261 107.23 106.379C109.391 105.296 110.268 102.657 109.185 100.496C108.102 98.3357 105.463 97.4582 103.302 98.5409C102.032 99.1772 100.741 99.7668 99.4303 100.31V85.6859C99.4303 80.9658 99.8904 76.9563 100.837 73.428C100.854 73.3657 100.911 73.3223 100.977 73.3223H109.626C112.397 73.3223 114.763 71.6258 115.652 69.0003C116.541 66.3746 115.693 63.5898 113.492 61.9054ZM81.6259 65.5276C81.6259 64.9375 82.106 64.4574 82.6961 64.4574H91.4601C92.0502 64.4574 92.5303 64.9375 92.5303 65.5276C92.5303 66.1177 92.0502 66.5977 91.4601 66.5977H82.6961C82.106 66.5977 81.6259 66.1177 81.6259 65.5276ZM81.8345 80.668C82.09 81.1679 82.2254 81.7189 82.2254 82.2935C82.2254 84.2747 80.6134 85.8867 78.6322 85.8867C76.6509 85.8867 75.0389 84.2747 75.0389 82.2935C75.0389 81.7702 75.1523 81.2595 75.3685 80.7907H80.7055C81.0929 80.7907 81.4704 80.7474 81.8345 80.668ZM56.3283 87.8449C56.4404 87.8345 56.5529 87.8273 56.6662 87.8273C58.6475 87.8273 60.2595 89.4393 60.2595 91.4206C60.2595 93.4019 58.6475 95.0138 56.6662 95.0138C56.5529 95.0138 56.4404 95.0068 56.3283 94.9963V87.8449ZM97.3204 87.2353C96.9269 87.3792 96.5094 87.4555 96.0875 87.4555C94.1063 87.4555 92.4943 85.8437 92.4943 83.8623C92.4943 81.8809 94.1063 80.269 96.0875 80.269C96.5836 80.269 97.0685 80.3725 97.5174 80.5679C97.386 82.1853 97.3204 83.8869 97.3204 85.6858V87.2353ZM98.7992 72.8816C98.3355 74.6099 97.9843 76.4439 97.7399 78.4046C97.2077 78.2435 96.652 78.1598 96.0875 78.1598C92.943 78.1598 90.3849 80.718 90.3849 83.8624C90.3849 87.0068 92.943 89.565 96.0875 89.565C96.5035 89.565 96.9166 89.5165 97.3204 89.4271V101.136C95.1771 101.93 92.9914 102.6 90.7781 103.143C90.7675 96.946 85.7229 91.9073 79.523 91.9073H74.1258C72.9115 91.9073 71.7175 92.0995 70.577 92.4787C70.0242 92.6624 69.7251 93.2594 69.9089 93.8122C70.0927 94.365 70.6898 94.664 71.2425 94.4803C72.168 94.1726 73.1381 94.0167 74.1258 94.0167H79.523C84.5662 94.0167 88.6693 98.1197 88.6693 103.163V103.622C84.7631 104.431 80.7874 104.846 76.8241 104.846C72.8612 104.846 68.8857 104.431 64.9796 103.622V103.163C64.9796 100.827 65.8599 98.6036 67.4584 96.9016C67.857 96.4769 67.8362 95.8095 67.4115 95.4107C66.987 95.0122 66.3195 95.033 65.9206 95.4575C63.9579 97.5475 62.8754 100.276 62.8706 103.144C60.6573 102.601 58.4715 101.93 56.3283 101.136V97.1125C56.4407 97.1191 56.5532 97.1235 56.6662 97.1235C59.8106 97.1235 62.3689 94.5654 62.3689 91.4209C62.3689 88.2765 59.8106 85.7182 56.6662 85.7182C56.5533 85.7182 56.4407 85.7226 56.3283 85.7292V77.0206C56.3283 75.8628 56.952 74.8734 57.9966 74.3736C59.0408 73.8741 60.2021 74.0092 61.1028 74.7353L65.9983 78.6828C67.6852 80.0421 69.8081 80.7907 71.9757 80.7907H73.1339C73.001 81.2772 72.9297 81.7812 72.9297 82.2935C72.9297 85.4378 75.4879 87.9961 78.6323 87.9961C81.7767 87.9961 84.3349 85.4378 84.3349 82.2935C84.3349 81.4188 84.1406 80.5774 83.7672 79.81C85.0196 78.9134 85.8614 77.4792 85.9468 75.8336C86.0729 73.4107 86.4588 71.0177 87.0905 68.707H91.4602C93.2134 68.707 94.6398 67.2806 94.6398 65.5275C94.6398 63.7743 93.2134 62.3479 91.4602 62.3479H89.616C90.5787 60.5752 91.7092 58.9596 92.9936 57.5345C93.2017 57.3036 93.2975 56.9925 93.255 56.6847C93.2127 56.3768 93.0367 56.1032 92.774 55.937C92.275 55.6214 91.8044 55.1827 91.4129 54.6682C90.8426 53.9186 90.5009 52.9834 90.4755 52.1024C90.4535 51.3428 90.6705 50.8302 90.8954 50.6592C91.4587 50.2308 93.3744 50.5903 94.6216 52.228C95.1029 52.8616 95.4325 53.5601 95.5748 54.2479C95.6762 54.7376 96.1075 55.0889 96.6075 55.0889H99.8377C100.657 55.0889 101.466 55.3629 102.116 55.8605L107.778 60.1905C105.127 61.4344 103.31 64.1448 103.31 67.1867C103.31 68.6254 103.711 70.0137 104.445 71.2128H100.977C99.9579 71.2128 99.0626 71.8992 98.7992 72.8816ZM113.654 68.3235C113.18 69.7203 111.874 71.2128 109.625 71.2128H107.126C106.038 70.1577 105.419 68.7108 105.419 67.1867C105.419 64.572 107.264 62.2943 109.776 61.719L112.21 63.5806C113.996 64.9471 114.127 66.9267 113.654 68.3235Z" fill="#222A3F" stroke="#222A3F" stroke-width="0.3"/>
<path d="M98.9062 57.8398C98.3238 57.8398 97.8516 58.3121 97.8516 58.8945V60.0422C97.8516 60.6246 98.3238 61.0969 98.9062 61.0969C99.4887 61.0969 99.9609 60.6246 99.9609 60.0422V58.8945C99.9609 58.3121 99.4887 57.8398 98.9062 57.8398Z" fill="#222A3F"/>
</g>
<defs>
<clipPath id="clip0_14_13469">
<rect width="72" height="72" fill="white" transform="translate(44 45)"/>
</clipPath>
</defs>
</svg>
